<svg xmlns="http://www.w3.org/2000/svg" viewBox="0 0 29.2 21.26"><defs><style>.cls-1{fill:#a5a5a5;}</style></defs><title>bckSp</title><g id="Layer_2" data-name="Layer 2"><g id="Layer_1-2" data-name="Layer 1"><path class="cls-1" d="M13.76,14.76a.51.51,0,0,0,.7,0l3.42-3.42,3.43,3.42a.51.51,0,0,0,.7,0,.5.5,0,0,0,0-.71l-3.42-3.42L22,7.21a.5.5,0,0,0,0-.71.48.48,0,0,0-.7,0L17.88,9.92,14.46,6.5a.48.48,0,0,0-.7,0,.5.5,0,0,0,0,.71l3.42,3.42-3.42,3.42A.5.5,0,0,0,13.76,14.76Z"/><path class="cls-1" d="M28.7,0H8.44a.49.49,0,0,0-.39.19L.11,10.32a.48.48,0,0,0,0,.62L8.05,21.07a.49.49,0,0,0,.39.19H28.7a.5.5,0,0,0,.5-.5V.5A.5.5,0,0,0,28.7,0Zm-.5,20.26H8.69L1.14,10.63,8.69,1H28.2Z"/></g></g></svg>