<svg xmlns="http://www.w3.org/2000/svg" viewBox="0 0 22.83 24.19"><defs><style>.cls-1{fill:#ef6c6c;}</style></defs><title>del</title><g id="Layer_2" data-name="Layer 2"><g id="Layer_1-2" data-name="Layer 1"><path class="cls-1" d="M22.33,3.18H15.21V2.24A2.25,2.25,0,0,0,13,0H9.86A2.24,2.24,0,0,0,7.62,2.24v.94H.5a.5.5,0,0,0-.5.5.5.5,0,0,0,.5.5H2L3.54,21.41a3,3,0,0,0,3.05,2.78h9.65a3,3,0,0,0,3-2.78L20.85,4.18h1.48a.5.5,0,0,0,.5-.5A.51.51,0,0,0,22.33,3.18ZM8.62,2.24A1.24,1.24,0,0,1,9.86,1H13a1.25,1.25,0,0,1,1.24,1.24v.94H8.62Zm9.67,19.08a2,2,0,0,1-2.05,1.87H6.59a2,2,0,0,1-2-1.87L3,4.18H19.85Z"/><path class="cls-1" d="M15,20.66h.07a.51.51,0,0,0,.5-.43L17.36,7.05a.49.49,0,0,0-.42-.56.5.5,0,0,0-.57.42L14.56,20.1A.49.49,0,0,0,15,20.66Z"/><path class="cls-1" d="M11.41,6.59a.51.51,0,0,0-.5.5V20.28a.5.5,0,0,0,.5.5.5.5,0,0,0,.5-.5V7.09A.5.5,0,0,0,11.41,6.59Z"/><path class="cls-1" d="M5.89,6.71a.5.5,0,0,0-.43.57L7.28,20.46a.5.5,0,0,0,.49.43h.07a.5.5,0,0,0,.43-.56L6.45,7.14A.5.5,0,0,0,5.89,6.71Z"/></g></g></svg>